<?xml version="1.0" encoding="utf-8"?>
<!-- Generator: Adobe Illustrator 26.0.0, SVG Export Plug-In . SVG Version: 6.00 Build 0)  -->
<svg version="1.1" id="Capa_1" xmlns="http://www.w3.org/2000/svg" xmlns:xlink="http://www.w3.org/1999/xlink" x="0px" y="0px"
	 viewBox="0 0 138.1 138.1" style="enable-background:new 0 0 138.1 138.1;" xml:space="preserve">
<g>
	<path d="M31.1,71.3c0-1.5,0-3,0-4.4c0-0.2,0.1-0.4,0.1-0.6c0.4-5.3,1.8-10.3,4.3-15C41.5,40.6,50.4,34,62.5,31.7
		c1.4-0.3,2.9-0.4,4.4-0.6c1.5,0,3,0,4.4,0c0.5,0.1,1.1,0.1,1.6,0.2c8.1,0.9,15.2,3.9,21.3,9.4c8,7.2,12.3,16.1,12.8,26.9
		c0.3,6.9-1.1,13.4-4.4,19.4c-7,12.4-17.7,19.2-31.9,20.1c-6.8,0.4-13.4-1.1-19.4-4.4C40.6,96.7,34,87.7,31.7,75.7
		C31.4,74.2,31.3,72.7,31.1,71.3z M70.4,48.5C70.4,48.5,70.4,48.5,70.4,48.5c0,1.9,0,3.8,0,5.7c0,0.5,0.1,0.8,0.5,1.1
		c3.8,3,7.7,6.1,11.5,9.2c0.4,0.3,0.7,0.4,1.2,0.2c3.9-1.3,7.7-2.6,11.6-3.9c0.5-0.2,0.8-0.5,0.9-1c0.7-3.3,1.5-6.6,2.3-9.9
		c0.1-0.3,0-0.7-0.2-1c-3.6-5.2-8.3-9.1-14-11.8c-0.3-0.1-0.7-0.1-1,0c-4.1,1.6-8.1,3.2-12.2,4.8c-0.5,0.2-0.6,0.4-0.6,0.9
		C70.4,44.6,70.4,46.6,70.4,48.5z M67.7,48.5c0-2,0-3.9,0-5.9c0-0.4-0.1-0.6-0.5-0.8c-4.1-1.6-8.2-3.2-12.3-4.9
		c-0.2-0.1-0.6-0.1-0.8,0c-5.8,2.7-10.5,6.7-14.1,12c-0.1,0.2-0.2,0.6-0.1,0.8c0.8,3.4,1.6,6.8,2.4,10.2c0.1,0.4,0.3,0.6,0.7,0.7
		c4,1.3,7.9,2.6,11.9,3.9c0.3,0.1,0.7,0,0.9-0.1c3.9-3.1,7.8-6.2,11.6-9.3c0.2-0.2,0.4-0.6,0.4-0.9C67.7,52.3,67.7,50.4,67.7,48.5z
		 M104.3,72.5c-0.1-0.1-0.2-0.3-0.3-0.5c-2.3-2.8-4.6-5.6-7-8.4c-0.3-0.3-0.5-0.4-0.9-0.3c-3.9,1.3-7.9,2.6-11.8,4
		c-0.3,0.1-0.6,0.4-0.6,0.7c-1.2,4.7-2.3,9.3-3.5,14c-0.1,0.2,0,0.6,0.2,0.8c1.8,2.5,3.7,4.9,5.6,7.4c0.1,0.2,0.5,0.4,0.7,0.3
		c3.9-0.6,7.7-1.2,11.5-1.8c0.3,0,0.6-0.3,0.8-0.5c1.2-2.3,2.4-4.5,3.4-6.9C103.5,78.4,104,75.5,104.3,72.5z M33.8,72.5
		c0,0.2,0,0.2,0,0.3c0.6,5.4,2.3,10.4,5.2,15.1c0.3,0.5,0.7,0.7,1.2,0.8c3.7,0.6,7.4,1.2,11.1,1.8c0.4,0.1,0.7,0,1-0.4
		c1.8-2.4,3.6-4.8,5.4-7.2c0.2-0.2,0.3-0.7,0.2-1c-1.1-4.6-2.3-9.2-3.4-13.8c-0.1-0.3-0.4-0.6-0.7-0.7c-3.9-1.3-7.9-2.6-11.8-4
		c-0.4-0.1-0.6-0.1-0.9,0.2c-2.4,2.9-4.7,5.7-7.1,8.5C34,72.2,33.9,72.4,33.8,72.5z M69.1,83.9c-2.7,0-5.5,0-8.2,0
		c-0.3,0-0.8,0.2-1,0.5c-1.8,2.3-3.6,4.7-5.4,7.1c-0.3,0.3-0.3,0.6,0,1c2.3,3.6,4.6,7.2,6.9,10.7c0.2,0.3,0.5,0.5,0.8,0.6
		c4.9,1,9.9,0.9,14.8-0.2c0.3-0.1,0.6-0.3,0.8-0.6c2-3.4,3.9-6.9,5.9-10.3c0.2-0.4,0.2-0.7-0.1-1.1c-1.8-2.3-3.6-4.7-5.3-7
		c-0.3-0.4-0.6-0.6-1.1-0.6C74.5,84,71.8,83.9,69.1,83.9z"/>
</g>
<g>
	<g>
		<path d="M102.4,27.1l8.9-2.6l2.2-8.6C103,7,89.7,1.3,75.1,0l4.5,8.1l-4.5,7.7C85.4,16.9,94.8,21,102.4,27.1z"/>
		<path d="M122.3,63l7.7,4.1l8.1-4.1c-1.3-14.6-7-27.9-15.9-38.5l-2.5,8.4l-8.6,2.8C117.1,43.4,121.2,52.7,122.3,63z"/>
		<path d="M75.1,122.3l-4.1,7.8l4.1,7.9c14.6-1.3,27.9-7,38.5-15.9l-9.2-2.5l-2-8.7C94.8,117.1,85.4,121.2,75.1,122.3z"/>
		<path d="M63,15.8l4.2-8.1L63,0C48.4,1.3,35.1,7,24.5,15.9l8.7,2.6l2.5,8.6C43.4,21,52.7,16.9,63,15.8z"/>
		<path d="M35.7,111l-9.2,2.1l-1.9,9c10.6,8.9,23.9,14.7,38.5,15.9l-4.8-8.4l4.8-7.3C52.7,121.2,43.4,117.1,35.7,111z"/>
		<path d="M15.8,75.1l-7.9-3.8L0,75.1c1.3,14.6,7,27.9,15.9,38.5l2.6-9.4l8.6-1.8C21,94.8,16.9,85.4,15.8,75.1z"/>
		<path d="M27.1,35.7l-2.9-8.6l-8.2-2.6C7,35.1,1.3,48.4,0,63l8-3.6l7.8,3.6C16.9,52.7,21,43.4,27.1,35.7z"/>
		<path d="M122.3,75.1c-1.2,10.3-5.2,19.6-11.3,27.3l2.6,8.9l8.6,2.2c8.9-10.6,14.7-23.9,15.9-38.5l-8.3,3.6L122.3,75.1z"/>
	</g>
</g>
</svg>
